<?xml version="1.0" standalone="no"?>
<!DOCTYPE svg PUBLIC "-//W3C//DTD SVG 20010904//EN"
 "http://www.w3.org/TR/2001/REC-SVG-20010904/DTD/svg10.dtd">
<svg version="1.0" xmlns="http://www.w3.org/2000/svg"
 width="700.000000pt" height="700.000000pt" viewBox="0 0 700.000000 700.000000"
 preserveAspectRatio="xMidYMid meet">
<metadata>
Created by potrace 1.11, written by Peter Selinger 2001-2013
</metadata>
<g transform="translate(0.000000,700.000000) scale(0.100000,-0.100000)"
fill="#000000" stroke="none">
<path d="M3330 6989 c-1365 -61 -2572 -927 -3084 -2214 -176 -443 -256 -936
-234 -1443 58 -1363 926 -2574 2213 -3086 515 -205 1149 -288 1685 -221 683
85 1298 348 1820 778 119 98 401 383 491 497 424 533 678 1137 754 1793 16
143 22 539 10 678 -94 1069 -629 1996 -1500 2604 -515 359 -1180 588 -1775
610 -74 3 -153 7 -175 9 -22 1 -114 -1 -205 -5z m513 -613 c40 -17 71 -51 86
-95 7 -21 11 -112 11 -237 l0 -204 -45 0 -45 0 0 -569 c0 -377 4 -579 11 -598
5 -15 104 -120 218 -233 221 -218 286 -296 323 -388 l23 -57 0 -1570 c0 -1496
-1 -1573 -18 -1630 -26 -84 -52 -121 -105 -153 l-47 -27 -710 -3 c-390 -2
-733 0 -762 3 -111 13 -182 98 -203 242 -6 42 -10 640 -10 1583 0 1645 -2
1563 56 1670 37 67 188 234 356 392 75 70 143 143 152 162 14 30 16 98 16 605
l0 571 -45 0 -45 0 0 210 c0 190 2 215 20 250 18 36 55 70 90 83 8 3 156 6
328 6 244 1 320 -2 345 -13z"/>
</g>
</svg>
